# xmcd
#
# Track frame offsets:
#	150
#	20520
#	41367
#	63470
#	79425
#
# Disc length: 1330 seconds
#
# Revision: 1
# Processed by: cddbd v1.5.1PL0 Copyright (c) Steve Scherf et al.
# Submitted via: CDex 1.50Beta5
#
DISCID=3a053005
DTITLE=タッキー＆翼 - 夢物語
DYEAR=2003
DGENRE=Pop
TTITLE0=タッキー＆翼/夢物語
TTITLE1=今井翼/風の詩
TTITLE2=滝沢秀明/It's Only Dream
TTITLE3=タッキー＆翼/ひと夏の…
TTITLE4=タッキー＆翼/夢物語〜Karaoke〜
EXTD=
EXTT0=
EXTT1=
EXTT2=
EXTT3=
EXTT4=
PLAYORDER=
